# File produced by Open Asset Import Library (http://www.assimp.sf.net)
# (assimp v3.1.256107357)

mtllib arrow.mtl

# vertex positions
v -0.344878 -1.019818 7.914038
v 0.000000 -1.019818 7.914038
v 0.000000 -0.519818 7.914038
v -0.344878 -0.519818 7.914038
v 0.366274 -1.019818 7.914038
v 0.366274 -0.519818 7.914038
v 0.000000 -0.019818 7.914038
v -0.344878 -0.019818 7.914038
v 0.366274 -0.019818 7.914038
v -0.344878 1.429444 7.914038
v 0.036375 2.069726 7.914038
v 0.036375 2.069726 7.414038
v -0.344878 1.429444 7.414038
v 0.357180 1.519682 7.914038
v 0.357180 1.519682 7.414038
v 0.036375 2.069726 6.914038
v -0.344878 1.429444 6.914038
v 0.357180 1.519682 6.914038
v -0.344878 -0.019818 6.914038
v 0.000000 -0.019818 6.914038
v 0.000000 -0.519818 6.914038
v -0.344878 -0.519818 6.914038
v 0.366274 -0.019818 6.914038
v 0.366274 -0.519818 6.914038
v 0.000000 -1.019818 6.914038
v -0.344878 -1.019818 6.914038
v 0.366274 -1.019818 6.914038
v -0.344878 -2.138795 6.914038
v 0.000000 -2.138795 6.914038
v 0.000000 -2.138795 7.414038
v -0.344878 -2.138795 7.414038
v 0.366274 -2.138795 6.914038
v 0.366274 -2.138795 7.414038
v 0.000000 -2.138795 7.914038
v -0.344878 -2.138795 7.914038
v 0.366274 -2.138795 7.914038
v 0.366274 -1.019818 7.414038
v 0.366274 -0.519818 7.414038
v 0.366274 -0.019818 7.414038
v -0.344878 -1.019818 7.414038
v -0.344878 -0.519818 7.414038
v -0.344878 -0.019818 7.414038
v 0.000000 -1.447019 6.914038
v -0.344878 -1.447019 6.914038
v -0.344878 -1.447019 7.414038
v 0.366274 -1.447019 6.914038
v 0.366274 -1.447019 7.414038
v -0.344878 -1.447019 7.914038
v 0.000000 -1.447019 7.914038
v 0.366274 -1.447019 7.914038
v -0.344878 -1.817314 7.914038
v 0.000000 -1.817314 7.914038
v 0.366274 -1.817314 7.914038
v 0.366274 -1.817314 7.414038
v 0.366274 -1.817314 6.914038
v 0.000000 -1.817314 6.914038
v -0.344878 -1.817314 6.914038
v -0.344878 -1.817314 7.414038
v 0.000000 0.473710 7.914038
v -0.344878 0.473710 7.914038
v -1.182471 -0.019818 7.414038
v -1.182471 -0.019818 7.914038
v -0.916305 0.473710 7.914038
v -0.916305 0.473710 7.414038
v 0.366274 0.473710 7.914038
v 1.240793 -0.019818 7.914038
v 1.240793 -0.019818 7.414038
v 0.964561 0.473710 7.414038
v 0.964561 0.473710 7.914038
v -0.344878 0.473710 6.914038
v 0.000000 0.473710 6.914038
v -1.182471 -0.019818 6.914038
v -0.916305 0.473710 6.914038
v 1.240793 -0.019818 6.914038
v 0.964561 0.473710 6.914038
v 0.366274 0.473710 6.914038
v -0.591069 1.006547 7.914038
v -0.591069 1.006547 7.414038
v -0.591069 1.006547 6.914038
v -0.344878 1.006547 6.914038
v 0.000000 1.006547 6.914038
v 0.366274 1.006547 6.914038
v 0.642291 1.006547 6.914038
v 0.642291 1.006547 7.414038
v 0.642291 1.006547 7.914038
v 0.366274 1.006547 7.914038
v 0.000000 1.006547 7.914038
v -0.344878 1.006547 7.914038
v -0.512380 1.136150 7.914038
v -0.512380 1.136150 7.414038
v -0.512380 1.136150 6.914038

# UV coordinates
vt 0.132263 0.176001
vt 0.185901 0.176001
vt 0.185901 0.253766
vt 0.132263 0.253766
vt 0.242868 0.176001
vt 0.242868 0.253766
vt 0.185901 0.331531
vt 0.132263 0.331531
vt 0.242868 0.331531
vt 0.836343 0.885912
vt 0.836343 0.985495
vt 0.758578 0.985495
vt 0.758578 0.885912
vt 0.519148 0.985495
vt 0.519148 0.899947
vt 0.596913 0.899947
vt 0.596913 0.985495
vt 0.680813 0.985495
vt 0.680813 0.885912
vt 0.674678 0.899947
vt 0.674678 0.985495
vt 0.516401 0.326953
vt 0.570040 0.326953
vt 0.570040 0.404718
vt 0.516401 0.404718
vt 0.627006 0.326953
vt 0.627006 0.404718
vt 0.570040 0.482483
vt 0.516401 0.482483
vt 0.627006 0.482483
vt 0.402408 0.660509
vt 0.456046 0.660509
vt 0.456046 0.738274
vt 0.402408 0.738274
vt 0.513013 0.660509
vt 0.513013 0.738274
vt 0.456046 0.816039
vt 0.402408 0.816039
vt 0.513013 0.816039
vt 0.847839 0.176001
vt 0.925604 0.176001
vt 0.925604 0.253766
vt 0.847839 0.253766
vt 0.770074 0.176001
vt 0.770074 0.253766
vt 0.925604 0.331531
vt 0.847839 0.331531
vt 0.770074 0.331531
vt 0.842478 0.509557
vt 0.920243 0.509557
vt 0.920243 0.587322
vt 0.842478 0.587322
vt 0.998008 0.509557
vt 0.998008 0.587322
vt 0.920243 0.665087
vt 0.842478 0.665087
vt 0.998008 0.665087
vt 0.570040 0.548925
vt 0.516401 0.548925
vt 0.842478 0.443115
vt 0.920243 0.443115
vt 0.627006 0.548925
vt 0.847839 0.109559
vt 0.925604 0.109559
vt 0.132263 0.109559
vt 0.185901 0.109559
vt 0.998008 0.443115
vt 0.770074 0.109559
vt 0.242868 0.109559
vt 0.132263 0.051967
vt 0.185901 0.051967
vt 0.242868 0.051967
vt 0.770074 0.051967
vt 0.847839 0.051967
vt 0.925604 0.051967
vt 0.627006 0.606517
vt 0.570040 0.606517
vt 0.516401 0.606517
vt 0.842478 0.385523
vt 0.920243 0.385523
vt 0.998008 0.385523
vt 0.132263 0.001967
vt 0.185901 0.001967
vt 0.242868 0.001967
vt 0.770074 0.001967
vt 0.847839 0.001967
vt 0.925604 0.001967
vt 0.627006 0.656517
vt 0.570040 0.656517
vt 0.516401 0.656517
vt 0.842478 0.335523
vt 0.920243 0.335523
vt 0.998008 0.335523
vt 0.185901 0.408290
vt 0.132263 0.408290
vt 0.758578 0.660509
vt 0.836343 0.660509
vt 0.836343 0.737267
vt 0.758578 0.737267
vt 0.242868 0.408290
vt 0.519148 0.660509
vt 0.596913 0.660509
vt 0.596913 0.737267
vt 0.519148 0.737267
vt 0.516401 0.250195
vt 0.570040 0.250195
vt 0.680813 0.660509
vt 0.680813 0.737267
vt 0.674678 0.660509
vt 0.674678 0.737267
vt 0.627006 0.250195
vt 0.836343 0.820139
vt 0.758578 0.820139
vt 0.680813 0.820139
vt 0.516401 0.167323
vt 0.570040 0.167323
vt 0.627006 0.167323
vt 0.674678 0.820139
vt 0.596913 0.820139
vt 0.519148 0.820139
vt 0.242868 0.491161
vt 0.185901 0.491161
vt 0.132263 0.491161
vt 0.836343 0.840296
vt 0.758578 0.840296
vt 0.680813 0.840296
vt 0.516401 0.101550
vt 0.575697 0.001967
vt 0.625592 0.087515
vt 0.241454 0.570969
vt 0.191559 0.656517
vt 0.132263 0.556934
vt 0.260259 0.816039
vt 0.260259 0.738274
vt 0.396272 0.738274
vt 0.396272 0.816039
vt 0.378882 0.331531
vt 0.335919 0.408290
vt 0.260259 0.660509
vt 0.396272 0.660509
vt 0.720058 0.250195
vt 0.763020 0.326953
vt 0.669935 0.167323
vt 0.285797 0.491161
vt 0.254123 0.738274
vt 0.254123 0.816039
vt 0.123853 0.816039
vt 0.123853 0.738274
vt 0.043389 0.408290
vt 0.001992 0.331531
vt 0.254123 0.660509
vt 0.123853 0.660509
vt 0.386131 0.326953
vt 0.427527 0.250195
vt 0.093973 0.491161
vt 0.478111 0.167323
vt 0.106211 0.511319
vt 0.490350 0.147166

# vertex normals
vn 0.000000 0.000000 1.000000
vn -0.859215 0.511615 0.000000
vn -0.127485 0.991840 0.000000
vn 0.863816 0.503808 0.000000
vn 0.000000 0.000000 -1.000000
vn 0.000000 -1.000000 0.000000
vn 1.000000 0.000000 0.000000
vn -1.000000 0.000000 0.000000
vn -1.000000 -0.000000 0.000000
vn -1.000000 -0.000000 0.000000
vn -0.880158 0.474680 0.000000
vn -0.866453 0.499259 0.000000
vn 0.872614 0.488410 0.000000
vn 0.863856 0.503739 0.000000
vn -0.853797 0.520606 0.000000
vn 0.864774 0.502162 0.000000
vn -0.854785 0.518982 0.000000
vn 0.874132 0.485689 0.000000
vn -0.868363 0.495929 0.000000

# Mesh
g pCube1
usemtl blinn1
f 4/4/1 1/1/1 2/2/1
f 2/2/1 3/3/1 4/4/1
f 3/3/1 2/2/1 5/5/1
f 5/5/1 6/6/1 3/3/1
f 8/8/1 4/4/1 3/3/1
f 3/3/1 7/7/1 8/8/1
f 7/7/1 3/3/1 6/6/1
f 6/6/1 9/9/1 7/7/1
f 13/13/2 10/10/2 11/11/3
f 11/11/3 12/12/3 13/13/2
f 12/17/3 11/14/3 14/15/4
f 14/15/4 15/16/4 12/17/3
f 17/19/2 13/13/2 12/12/3
f 12/12/3 16/18/3 17/19/2
f 16/21/3 12/17/3 15/16/4
f 15/16/4 18/20/4 16/21/3
f 22/25/5 19/22/5 20/23/5
f 20/23/5 21/24/5 22/25/5
f 21/24/5 20/23/5 23/26/5
f 23/26/5 24/27/5 21/24/5
f 26/29/5 22/25/5 21/24/5
f 21/24/5 25/28/5 26/29/5
f 25/28/5 21/24/5 24/27/5
f 24/27/5 27/30/5 25/28/5
f 31/34/6 28/31/6 29/32/6
f 29/32/6 30/33/6 31/34/6
f 30/33/6 29/32/6 32/35/6
f 32/35/6 33/36/6 30/33/6
f 35/38/6 31/34/6 30/33/6
f 30/33/6 34/37/6 35/38/6
f 34/37/6 30/33/6 33/36/6
f 33/36/6 36/39/6 34/37/6
f 38/43/7 37/40/7 27/41/7
f 27/41/7 24/42/7 38/43/7
f 6/45/7 5/44/7 37/40/7
f 37/40/7 38/43/7 6/45/7
f 39/47/7 38/43/7 24/42/7
f 24/42/7 23/46/7 39/47/7
f 9/48/7 6/45/7 38/43/7
f 38/43/7 39/47/7 9/48/7
f 22/52/9 26/49/8 40/50/8
f 40/50/8 41/51/9 22/52/9
f 41/51/9 40/50/8 1/53/8
f 1/53/8 4/54/9 41/51/9
f 19/56/10 22/52/9 41/51/9
f 41/51/9 42/55/10 19/56/10
f 42/55/10 41/51/9 4/54/9
f 4/54/9 8/57/10 42/55/10
f 44/59/5 26/29/5 25/28/5
f 25/28/5 43/58/5 44/59/5
f 45/61/8 40/50/8 26/49/8
f 26/49/8 44/60/8 45/61/8
f 43/58/5 25/28/5 27/30/5
f 27/30/5 46/62/5 43/58/5
f 46/64/7 27/41/7 37/40/7
f 37/40/7 47/63/7 46/64/7
f 49/66/1 2/2/1 1/1/1
f 1/1/1 48/65/1 49/66/1
f 48/67/8 1/53/8 40/50/8
f 40/50/8 45/61/8 48/67/8
f 47/63/7 37/40/7 5/44/7
f 5/44/7 50/68/7 47/63/7
f 50/69/1 5/5/1 2/2/1
f 2/2/1 49/66/1 50/69/1
f 52/71/1 49/66/1 48/65/1
f 48/65/1 51/70/1 52/71/1
f 53/72/1 50/69/1 49/66/1
f 49/66/1 52/71/1 53/72/1
f 54/74/7 47/63/7 50/68/7
f 50/68/7 53/73/7 54/74/7
f 55/75/7 46/64/7 47/63/7
f 47/63/7 54/74/7 55/75/7
f 56/77/5 43/58/5 46/62/5
f 46/62/5 55/76/5 56/77/5
f 57/78/5 44/59/5 43/58/5
f 43/58/5 56/77/5 57/78/5
f 58/80/8 45/61/8 44/60/8
f 44/60/8 57/79/8 58/80/8
f 51/81/8 48/67/8 45/61/8
f 45/61/8 58/80/8 51/81/8
f 34/83/1 52/71/1 51/70/1
f 51/70/1 35/82/1 34/83/1
f 36/84/1 53/72/1 52/71/1
f 52/71/1 34/83/1 36/84/1
f 33/86/7 54/74/7 53/73/7
f 53/73/7 36/85/7 33/86/7
f 32/87/7 55/75/7 54/74/7
f 54/74/7 33/86/7 32/87/7
f 29/89/5 56/77/5 55/76/5
f 55/76/5 32/88/5 29/89/5
f 28/90/5 57/78/5 56/77/5
f 56/77/5 29/89/5 28/90/5
f 31/92/8 58/80/8 57/79/8
f 57/79/8 28/91/8 31/92/8
f 35/93/8 51/81/8 58/80/8
f 58/80/8 31/92/8 35/93/8
f 60/95/1 8/8/1 7/7/1
f 7/7/1 59/94/1 60/95/1
f 64/99/12 61/96/11 62/97/11
f 62/97/11 63/98/12 64/99/12
f 59/94/1 7/7/1 9/9/1
f 9/9/1 65/100/1 59/94/1
f 69/104/14 66/101/13 67/102/13
f 67/102/13 68/103/14 69/104/14
f 71/106/5 20/23/5 19/22/5
f 19/22/5 70/105/5 71/106/5
f 73/108/12 72/107/11 61/96/11
f 61/96/11 64/99/12 73/108/12
f 68/103/14 67/102/13 74/109/13
f 74/109/13 75/110/14 68/103/14
f 76/111/5 23/26/5 20/23/5
f 20/23/5 71/106/5 76/111/5
f 78/113/15 64/99/12 63/98/12
f 63/98/12 77/112/15 78/113/15
f 79/114/15 73/108/12 64/99/12
f 64/99/12 78/113/15 79/114/15
f 81/116/5 71/106/5 70/105/5
f 70/105/5 80/115/5 81/116/5
f 82/117/5 76/111/5 71/106/5
f 71/106/5 81/116/5 82/117/5
f 84/119/16 68/103/14 75/110/14
f 75/110/14 83/118/16 84/119/16
f 85/120/16 69/104/14 68/103/14
f 68/103/14 84/119/16 85/120/16
f 87/122/1 59/94/1 65/100/1
f 65/100/1 86/121/1 87/122/1
f 88/123/1 60/95/1 59/94/1
f 59/94/1 87/122/1 88/123/1
f 90/125/17 78/113/15 77/112/15
f 77/112/15 89/124/17 90/125/17
f 91/126/17 79/114/15 78/113/15
f 78/113/15 90/125/17 91/126/17
f 16/128/5 81/116/5 80/115/5
f 80/115/5 17/127/5 16/128/5
f 18/129/5 82/117/5 81/116/5
f 81/116/5 16/128/5 18/129/5
f 15/16/18 84/119/16 83/118/16
f 83/118/16 18/20/18 15/16/18
f 14/15/18 85/120/16 84/119/16
f 84/119/16 15/16/18 14/15/18
f 11/131/1 87/122/1 86/121/1
f 86/121/1 14/130/1 11/131/1
f 10/132/1 88/123/1 87/122/1
f 87/122/1 11/131/1 10/132/1
f 66/136/6 9/133/6 39/134/6
f 39/134/6 67/135/6 66/136/6
f 69/138/1 65/100/1 9/9/1
f 9/9/1 66/137/1 69/138/1
f 67/135/6 39/134/6 23/139/6
f 23/139/6 74/140/6 67/135/6
f 74/142/5 23/26/5 76/111/5
f 76/111/5 75/141/5 74/142/5
f 75/141/5 76/111/5 82/117/5
f 82/117/5 83/143/5 75/141/5
f 85/144/1 86/121/1 65/100/1
f 65/100/1 69/138/1 85/144/1
f 82/117/5 18/129/5 83/143/5
f 14/130/1 86/121/1 85/144/1
f 61/148/6 42/145/6 8/146/6
f 8/146/6 62/147/6 61/148/6
f 62/150/1 8/8/1 60/95/1
f 60/95/1 63/149/1 62/150/1
f 72/152/6 19/151/6 42/145/6
f 42/145/6 61/148/6 72/152/6
f 73/154/5 70/105/5 19/22/5
f 19/22/5 72/153/5 73/154/5
f 63/149/1 60/95/1 88/123/1
f 88/123/1 77/155/1 63/149/1
f 79/156/5 80/115/5 70/105/5
f 70/105/5 73/154/5 79/156/5
f 88/123/1 10/132/1 89/157/1
f 88/123/1 89/157/1 77/155/1
f 89/124/19 10/10/19 13/13/19
f 13/13/19 90/125/19 89/124/19
f 90/125/19 13/13/19 17/19/19
f 17/19/19 91/126/19 90/125/19
f 91/158/5 17/127/5 80/115/5
f 80/115/5 79/156/5 91/158/5
